<?xml version="1.0" encoding="utf-8"?>
<!-- Generator: Adobe Illustrator 22.1.0, SVG Export Plug-In . SVG Version: 6.00 Build 0)  -->
<svg version="1.1" id="Layer_1" xmlns="http://www.w3.org/2000/svg" xmlns:xlink="http://www.w3.org/1999/xlink" x="0px" y="0px"
	 viewBox="0 0 70 70" style="enable-background:new 0 0 70 70; fill:#0E3570;" xml:space="preserve">
<g>
	<path d="M44.5,59.5c0.8,0.2,1.7,0.3,2.6,0.3c0,0,0.1,0,0.1,0c3.7,0,7.2-1.9,9.2-4.9c2.4-3.8,2.2-9-0.7-12.7
		c-2.4-3.2-6.9-4.6-11-3.7c-0.5,0.1-0.9,0.2-1.4,0.4c-4.2,1.7-7.1,6.2-6.9,10.7C36.7,54.2,40,58.3,44.5,59.5z M43.8,40.3
		c0.4-0.1,0.7-0.3,1.2-0.4c0.7-0.2,1.5-0.2,2.2-0.2c2.9,0,5.6,1.2,7.3,3.4c2.5,3.2,2.7,7.7,0.6,11c-1.6,2.6-4.8,4.2-7.9,4.3
		c-0.8,0-1.6-0.1-2.3-0.3c-3.8-1-6.7-4.6-7-8.5C37.7,45.6,40.2,41.7,43.8,40.3z"/>
	<path d="M59.9,45.2c-0.8-2.7-2.5-5.1-4.8-6.8c-1.4-1-2.9-1.7-4.4-2.3c-0.3-0.1-0.6-0.3-1-0.4v-5c0-0.4-0.3-0.7-0.7-0.7
		c-0.4,0-0.7,0.3-0.7,0.7v5.9l0.4,0.2c0.5,0.2,1,0.4,1.4,0.6c1.5,0.6,2.8,1.2,4.1,2.1c2,1.5,3.6,3.7,4.3,6c1.1,3.8,0.2,8.1-2.4,11.1
		c-2.1,2.4-5.3,4-8.6,4.1c-1.8,0.1-3.5-0.6-5.3-1.3c-0.5-0.2-0.9-0.4-1.4-0.5l-1-0.4l-0.6-0.1l-0.7-0.1l-12.6-0.1l-12.5,0.1h-0.4
		l-0.4,0l-0.3-0.1l-0.3-0.1l-0.3-0.2l-0.2-0.2l-0.2-0.3L11,57.2V16.3l0.1-0.3l0.2-0.2l0.2-0.2l0.2-0.2l0.2-0.1l0.3-0.1l0.9-0.1
		l2.7,0.1h2.8c0.4,0,0.7-0.3,0.7-0.7s-0.3-0.7-0.7-0.7l-2.8,0L13,13.7l-1,0.1L11.5,14L11,14.2l-0.4,0.3l-0.4,0.4l-0.3,0.5L9.5,16
		v41.7l0.4,0.6l0.3,0.4l0.4,0.4l0.5,0.3l0.5,0.2l0.5,0.1l0.7,0.1l13-0.1l12.5,0.1l0.5,0l0.4,0.1l1,0.4c0.5,0.2,0.9,0.4,1.4,0.5
		c1.8,0.7,3.6,1.4,5.6,1.4c0.1,0,0.2,0,0.3,0c3.7-0.1,7.3-1.8,9.7-4.6C60.2,54.4,61.2,49.5,59.9,45.2z"/>
	<path d="M40.8,15.3C40.8,15.3,40.8,15.3,40.8,15.3l3.3-0.1l3.3,0.1l0.2,0l0.2,0.1l0.1,0.1l0.1,0.2l0.1,0.2l0.1,0.3l0.1,0.4v6
		c0,0.4,0.3,0.7,0.7,0.7c0.4,0,0.7-0.3,0.7-0.7v-6.2L49.7,16l-0.1-0.4L49.3,15L49,14.5l-0.5-0.4L48,14l-0.5-0.1l-3.5-0.1l-3.3,0.1
		c-0.4,0-0.7,0.3-0.7,0.8C40,15,40.4,15.3,40.8,15.3z"/>
	<path d="M18,18.9c0,0.5,0.3,0.7,1,0.7l22.7,0l-0.2-0.9c-0.4-1.8-1.2-2.9-2.9-3.8c-0.3-0.2-0.6-0.3-0.9-0.5
		c-0.9-0.4-1.7-0.9-2.2-1.5c-0.4-0.5-0.8-1.1-1.1-1.7c-0.4-0.8-0.8-1.6-1.5-2.3c-0.6-0.6-1.4-1-2.4-1.1c-1.3-0.2-2.6,0.1-3.6,0.9
		c-0.9,0.7-1.4,1.7-1.9,2.6c-0.4,0.8-0.8,1.5-1.4,2.1c-0.5,0.5-1.2,0.8-1.9,1.1c-0.4,0.2-0.8,0.3-1.1,0.5C18.8,15.8,18,17.1,18,18.9
		z M21.2,16.2c0.3-0.2,0.7-0.3,1-0.5c0.8-0.4,1.6-0.7,2.3-1.3c0.8-0.7,1.3-1.6,1.8-2.4c0.5-0.8,0.9-1.6,1.5-2.1
		c0.6-0.5,1.5-0.7,2.4-0.6c0.6,0.1,1.2,0.4,1.6,0.7c0.5,0.5,0.9,1.2,1.2,1.9c0.4,0.7,0.8,1.4,1.3,2.1c0.8,0.8,1.7,1.3,2.7,1.8
		c0.3,0.1,0.6,0.3,0.8,0.4c1,0.5,1.5,1.1,1.9,2c-3.7,0-16.8,0-20.2,0C19.7,17.3,20.3,16.7,21.2,16.2z"/>
	<path d="M30.4,10.6c-0.8-0.2-1.7,0-2.3,0.5c-0.6,0.5-0.8,1.3-0.6,2.1c0.2,1,1.2,1.7,2.2,1.7c0.1,0,0.3,0,0.4,0
		c1-0.2,1.7-1.1,1.7-2.1v0C31.9,11.8,31.3,10.9,30.4,10.6z M29.8,13.4c-0.4,0.1-0.8-0.2-0.9-0.6c-0.1-0.3,0.1-0.5,0.2-0.6
		c0.1-0.1,0.3-0.2,0.6-0.2c0.1,0,0.2,0,0.3,0c0.4,0.1,0.5,0.6,0.5,0.7C30.4,13,30.2,13.3,29.8,13.4z"/>
	<path d="M25.5,33.5c-0.2-0.2-0.5-0.2-0.7,0l-4.3,4.3l-1.4-1.4c-0.2-0.2-0.5-0.2-0.7,0c-0.2,0.2-0.2,0.5,0,0.7l2.1,2.1l5-5
		C25.7,34,25.7,33.7,25.5,33.5z"/>
	<path d="M20.4,32l5-4.9c0.2-0.2,0.2-0.5,0-0.7c-0.2-0.2-0.5-0.2-0.7,0l-4.3,4.1l-1.6-1.6c-0.2-0.2-0.5-0.2-0.7,0
		c-0.2,0.2-0.2,0.5,0,0.7L20.4,32z"/>
	<path d="M20.5,46.2l5-5c0.2-0.2,0.2-0.5,0-0.7c-0.2-0.2-0.5-0.2-0.7,0l-4.3,4.3l-1.7-1.6c-0.2-0.2-0.5-0.2-0.7,0
		c-0.2,0.2-0.2,0.5,0,0.7L20.5,46.2z"/>
	<path d="M44.3,54.7l9.6-9.6c0.2-0.2,0.2-0.5,0-0.7c-0.2-0.2-0.5-0.2-0.7,0l-8.8,8.8L41.1,50c-0.2-0.2-0.5-0.2-0.7,0
		c-0.2,0.2-0.2,0.5,0,0.7L44.3,54.7z"/>
	<path d="M27.3,42.7c-0.3,0-0.5,0.2-0.5,0.5s0.2,0.5,0.5,0.5h7.2c0.3,0,0.5-0.2,0.5-0.5s-0.2-0.5-0.5-0.5H27.3z"/>
	<path d="M39.3,35.8c0-0.3-0.2-0.5-0.5-0.5H27.3c-0.3,0-0.5,0.2-0.5,0.5c0,0.3,0.2,0.5,0.5,0.5h11.5C39.1,36.4,39.3,36.1,39.3,35.8z
		"/>
	<path d="M27.3,29h11.5c0.3,0,0.5-0.2,0.5-0.5S39.1,28,38.8,28H27.3c-0.3,0-0.5,0.2-0.5,0.5S27,29,27.3,29z"/>
	<path d="M46.8,26.8c0,1.2,1,2.2,2.2,2.2c1.3,0,2.3-1,2.3-2.2c0-1.2-1-2.2-2.2-2.2C47.8,24.5,46.8,25.5,46.8,26.8z"/>
</g>
</svg>
