<svg xmlns="http://www.w3.org/2000/svg" width="56" height="60" viewBox="0 0 56 60">
    <g fill="none" fill-rule="evenodd">
        <g stroke="#0E3570" stroke-linecap="round" stroke-width="2">
            <path d="M17.604 2.14h26.497v14.964M28.397 47.843H1.901V2.14h4.397M54.57 58.849H32.121l-.324-.054-.162-.055-.054-.054-.054-.108-.054-.163-.054-.325.054-13.77v-.705l.108-.705.216-.65.27-.651.324-.543.431-.542.54-.488.593-.433.594-.272.594-.162.647-.109.648-.054 6.583.054 6.584-.054.594.054.485.055.486.108.486.163.432.217.377.27.378.272.324.27.27.38.27.38.215.38.216.379.162.433.108.434.108.434.054.488.054 1.193v13.012z"/>
        </g>
        <path stroke="#0E3570" stroke-linecap="round" stroke-width="2" d="M52.75 29.028l-.055.942-.166.886-.222.886-.332.775-.333.83-.498.72-.499.666-.554.664-.664.554-.665.554-.775.443-.775.332-.831.333-.83.221-.943.11-.886.056-.941-.055-.887-.111-.886-.221-.775-.333-.83-.387-.72-.444-.665-.498-.665-.61-.554-.608-.554-.72-.443-.72-.332-.776-.332-.83-.222-.887-.11-.886-.056-.942.055-.886.166-.886.222-.886.277-.831.388-.775.443-.776.554-.664.553-.665.665-.554.665-.554.775-.443.775-.332.831-.332.83-.222.887-.11.942-.056.886.055.886.167.886.221.831.332.775.388.776.443.664.499.665.61.554.608.498.72.443.72.388.775.332.831.167.886.166.887zM9.75 13h27M9.75 34h22M9.75 23h22"/>
        <path fill="#0E3570" d="M14.75 2.5a2.5 2.5 0 1 1-5 0 2.5 2.5 0 0 1 5 0"/>
    </g>
</svg>
