<svg xmlns="http://www.w3.org/2000/svg" width="57" height="52" viewBox="0 0 57 52">
    <g fill="none" fill-rule="evenodd">
        <path stroke="#0E3570" stroke-linecap="round" stroke-width="2" d="M31.937 14H55.5l-27-13-27 13h21.22M51.5 16v3h-46v-3M51.5 47v-4h-46v4M7.045 23.364a1.458 1.458 0 0 1-1.457-1.46v-2.858h8.482v2.858c0 .806-.652 1.46-1.456 1.46"/>
        <path stroke="#0E3570" stroke-linecap="round" stroke-width="2" d="M7.045 38.776c-.804 0-1.457.654-1.457 1.46v2.859h8.482v-2.86c0-.805-.652-1.459-1.456-1.459M25.705 38.776c-.804 0-1.456.654-1.456 1.46v2.859h8.481v-2.86c0-.805-.652-1.459-1.456-1.459M44.365 38.776c-.804 0-1.456.654-1.456 1.46v2.859h8.482v-2.86c0-.805-.652-1.459-1.457-1.459M25.705 23.364a1.458 1.458 0 0 1-1.456-1.46v-2.858h8.481v2.858c0 .806-.652 1.46-1.456 1.46M44.365 23.364a1.458 1.458 0 0 1-1.456-1.46v-2.858h8.482v2.858c0 .806-.652 1.46-1.457 1.46M7.045 23.364v15.412M12.614 23.364v15.412M25.705 23.364v15.412M31.274 23.364v15.412M44.365 23.364v15.412M49.934 23.364v15.412M51.391 47.355h1.437a2.419 2.419 0 0 1 2.416 2.422V51H1.734v-1.223a2.419 2.419 0 0 1 2.417-2.422h.998"/>
        <path fill="#0E3570" d="M29.232 14.819a1.946 1.946 0 0 1-2.495 1.17 1.953 1.953 0 0 1-1.167-2.501 1.947 1.947 0 0 1 2.495-1.17 1.953 1.953 0 0 1 1.167 2.5"/>
    </g>
</svg>
