<svg xmlns="http://www.w3.org/2000/svg" width="63" height="56" viewBox="0 0 63 56">
    <g fill="none" fill-rule="evenodd">
        <g stroke="#0E3570" stroke-linecap="round" stroke-width="2">
            <path d="M3.132 39.603V50.788l.087.436.088.436.174.436.175.392.217.392.262.35.261.304.305.262.349.261.392.218.393.218.391.13.436.131.48.044.48.044h31.465l.436-.044.436-.044.392-.13.393-.131.392-.218.349-.218.348-.261.305-.262.261-.349.262-.305.218-.392.218-.349.13-.436.131-.392.044-.436.043-.436V30.39M43.446 13.652V5.676l-.044-.48-.044-.479-.13-.436-.131-.436-.175-.392-.26-.392-.263-.349-.26-.305-.35-.305-.348-.262-.349-.218-.392-.174-.436-.13-.436-.132-.48-.043-.479-.044H16.512v1.918l-.087 2.397-.044 1.177-.174 1.177-.087.48-.13.435-.132.436-.218.392-.218.393-.261.349-.261.305-.306.305-.348.261-.35.262-.391.174-.392.174-.436.175-.436.087-.48.087-.479.044-1.786.087H7.709l-3.575.043h-.958l-.044.785V29"/>
            <path d="M61.663 6.722v.392l-.088.393-.086.348-.175.305-.174.305-.218.306-.48.566L42.53 27.251 38.783 31l-1.919 1.874-1.917 1.787-.915.872-.959.784-1.003.741-1.002.698-1.089.653-1.046.61-1.133.567-1.134.523-.697.218-.74.175h-.349l-.13-.044-.088-.087-.087-.13v-.306l.043-.174.349-1.046.218-.524.218-.522.61-1.177.61-1.177.697-1.134.741-1.09.785-1.045.871-1.046.872-.959.915-1.003L43.707 16.79 55.953 4.543l.393-.349.392-.261.436-.219.392-.13.436-.088H58.83l.392.088.392.13.392.175.35.218.304.261.262.305.261.35.174.348.132.435.13.436z"/>
        </g>
        <path stroke="#0E3570" stroke-linecap="round" stroke-width="2" d="M9 44.122L15.455 44l6.498.122h8.112L37 44M9 17.122L14.894 17H37M9 24h24M48 26l14-14M9 31h18M9 37h14M36 38l2 .507"/>
        <path fill="#0E3570" d="M5 34.5c0 1.966-2.27 3.402-4.33 1.83C-.904 34.27.533 32 2.5 32A2.5 2.5 0 0 1 5 34.5"/>
    </g>
</svg>
