<?xml version="1.0" encoding="utf-8"?>
<!-- Generator: Adobe Illustrator 22.1.0, SVG Export Plug-In . SVG Version: 6.00 Build 0)  -->
<svg version="1.1" xmlns="http://www.w3.org/2000/svg" xmlns:xlink="http://www.w3.org/1999/xlink" x="0px" y="0px"
	 viewBox="0 0 70 70" style="enable-background:new 0 0 70 70; fill:#0E3570; width:85px; height:85px;" xml:space="preserve">
<style type="text/css">
	.st0{display:none;}
	.st1{display:inline;}
	.st2{fill:none;stroke:#0E3570;stroke-width:1.5;stroke-miterlimit:10;}
	.st3{fill:none;stroke:#0E3570;stroke-width:1.5;stroke-linecap:round;stroke-miterlimit:10;}
</style>
<g id="Layer_1" class="st0">
	<g id="Cbx8Rp.tif" class="st1">
		
			<image style="overflow:visible;" width="67" height="76" id="Layer_1_1_" xlink:href="E1DFF08F6914741A.png"  transform="matrix(0.7612 0 0 0.7612 9.5 6.0746)">
		</image>
	</g>
</g>
<g id="Layer_2">
	<g>
		<path class="st2" d="M35,42.8c10.8,0,12.7-11.7,12.7-11.7s2.9,0,2.9-2.9c0-3.9-2.9-2.9-2.9-2.9C48.7,6.6,34,7.6,34,7.6
			s-14.7-1-13.7,17.6c0,0-2.9-1-2.9,2.9c0,2.9,2.9,2.9,2.9,2.9s2,11.7,12.7,11.7H35z"/>
		<path class="st2" d="M45.2,48.7c-2.5-1.2-5.1-2.9-5.1-2.9v-4"/>
		<path class="st2" d="M27.9,41.7v4c0,0-4.7,2.9-7.6,3.9s-8.8,3.9-8.8,12.7l45,0.1c0-6.2-3-9.5-5.7-11.3"/>
		<polygon class="st2" points="41.9,52.6 40.9,57.5 45.8,56.5 58.5,43.8 54.6,39.9 		"/>
		<path class="st2" d="M39.9,45.7c0,0-1,2.9-5.9,2.9s-5.9-2.9-5.9-2.9"/>
		<line class="st3" x1="28.1" y1="53.6" x2="37" y2="53.6"/>
		<line class="st3" x1="26.2" y1="57.5" x2="37" y2="57.5"/>
		<circle cx="22.3" cy="57.5" r="2"/>
		<path class="st2" d="M20.3,22.8c0,0,5.9,0.5,10.8-5.4c3.9,3.9,13.8,5.2,16.7,5.2"/>
	</g>
</g>
</svg>
