<?xml version="1.0" encoding="UTF-8"?>
<svg width="52px" height="62px" viewBox="0 0 52 62" version="1.1" xmlns="http://www.w3.org/2000/svg" xmlns:xlink="http://www.w3.org/1999/xlink">
    <!-- Generator: sketchtool 51.2 (57519) - http://www.bohemiancoding.com/sketch -->
    <title>637DC51E-3456-4A3B-B61F-84B0035F1C5F</title>
    <desc>Created with sketchtool.</desc>
    <defs></defs>
    <g id="Page-1" stroke="none" stroke-width="1" fill="none" fill-rule="evenodd" opacity="0.6">
        <g id="05_Icons" transform="translate(-1215.000000, -619.000000)">
            <g id="White" transform="translate(0.000000, 567.000000)">
                <g id="Offer_1" transform="translate(1216.000000, 52.000000)">
                    <g id="Offer">
                        <path d="M39.2044,39.2974 L39.2044,56.2214 C39.2044,58.8494 37.0544,60.9994 34.4264,60.9994 L4.7784,60.9994 C2.1504,60.9994 0.0004,58.8494 0.0004,56.2214 L0.0004,15.9374 C0.0004,13.3094 2.1504,11.1584 4.7784,11.1584 L21.5694,11.1584" id="Stroke-1" stroke="#FEFEFE" stroke-width="2" stroke-linecap="round"></path>
                        <path d="M49.7776,11.9312 C49.7776,17.9682 44.8826,22.8622 38.8456,22.8622 C32.8086,22.8622 27.9146,17.9682 27.9146,11.9312 C27.9146,5.8942 32.8086,0.9992 38.8456,0.9992 C44.8826,0.9992 49.7776,5.8942 49.7776,11.9312 Z" id="Stroke-3" stroke="#FEFEFE" stroke-width="2" stroke-linecap="round"></path>
                        <path d="M38.0931,17.3853 L38.0931,16.0243 C37.1331,15.9813 36.2011,15.7233 35.6561,15.4073 L36.0861,13.7303 C36.6891,14.0603 37.5341,14.3613 38.4661,14.3613 C39.2831,14.3613 39.8421,14.0453 39.8421,13.4723 C39.8421,12.9283 39.3831,12.5833 38.3221,12.2253 C36.7881,11.7083 35.7421,10.9923 35.7421,9.6023 C35.7421,8.3403 36.6311,7.3513 38.1651,7.0503 L38.1651,5.6893 L39.5701,5.6893 L39.5701,6.9503 C40.5301,6.9933 41.1751,7.1943 41.6481,7.4233 L41.2331,9.0433 C40.8601,8.8853 40.2001,8.5553 39.1681,8.5553 C38.2371,8.5553 37.9361,8.9563 37.9361,9.3593 C37.9361,9.8313 38.4371,10.1323 39.6551,10.5913 C41.3621,11.1933 42.0501,11.9823 42.0501,13.2723 C42.0501,14.5473 41.1461,15.6363 39.4981,15.9233 L39.4981,17.3853 L38.0931,17.3853 Z" id="Fill-5" fill="#FEFEFE"></path>
                        <path d="M42.2923,31.4361 C42.2923,33.3391 40.7493,34.8821 38.8463,34.8821 C36.9423,34.8821 35.3993,33.3391 35.3993,31.4361 C35.3993,29.5331 36.9423,27.9901 38.8463,27.9901 C40.7493,27.9901 42.2923,29.5331 42.2923,31.4361" id="Fill-7" fill="#FEFEFE"></path>
                        <path d="M9.9124,31.6646 L29.2924,31.6646" id="Stroke-9" stroke="#FEFEFE" stroke-width="2" stroke-linecap="round"></path>
                        <path d="M9.9124,39.8941 L29.2924,39.8941" id="Stroke-11" stroke="#FEFEFE" stroke-width="2" stroke-linecap="round"></path>
                        <path d="M9.9124,48.1246 L29.2924,48.1246" id="Stroke-13" stroke="#FEFEFE" stroke-width="2" stroke-linecap="round"></path>
                    </g>
                </g>
            </g>
        </g>
    </g>
</svg>