<?xml version="1.0" encoding="UTF-8"?>
<svg width="55px" height="59px" viewBox="0 0 55 59" version="1.1" xmlns="http://www.w3.org/2000/svg" xmlns:xlink="http://www.w3.org/1999/xlink">
    <!-- Generator: sketchtool 51.2 (57519) - http://www.bohemiancoding.com/sketch -->
    <title>913686A5-70EA-47C1-95FF-62F0AEE2555F</title>
    <desc>Created with sketchtool.</desc>
    <defs></defs>
    <g id="Page-1" stroke="none" stroke-width="1" fill="none" fill-rule="evenodd">
        <g id="01_Personal-Details" transform="translate(-175.000000, -350.000000)">
            <g id="Banner" transform="translate(0.000000, 70.000000)">
                <g id="Flow" transform="translate(142.000000, 255.000000)">
                    <g id="Personal-details">
                        <g id="Personal" transform="translate(5.000000, 0.000000)">
                            <g id="Personal_S" transform="translate(29.000000, 26.000000)">
                                <g id="Personal">
                                    <path d="M44,38 L34.8468278,35.433575 C34.648352,35.3782268 34.4595492,35.293475 34.2883012,35.1813949 C33.8060839,34.8672941 33.4897408,34.3657014 33.422388,33.8080687 L33,30.3107569 C35.5633468,28.3891379 37.4581813,25.5172603 38.3685188,22.1635077 C40.0021821,22.0234077 41.2578817,20.2681791 41.2578817,18.0545987 C41.2578817,16.0077545 40.1931344,14.3531904 38.7353765,14" id="Stroke-1" stroke="#0E3570" stroke-width="2" stroke-linecap="round"></path>
                                    <path d="M20,56 L43,56" id="Stroke-3" stroke="#0E3570" stroke-width="2" stroke-linecap="round"></path>
                                    <path d="M8.74998161,38 C7.64366697,38.2441075 6.51422731,38.8334481 5.40355579,39.7499395 C3.65342704,41.193489 2.45193114,43.2026044 2.01389624,45.4079434 L0.0110679268,55.4267324 C-0.0207708767,55.5667008 0.0174356874,55.7153753 0.108260064,55.8262115 C0.200425021,55.9347037 0.33381285,56 0.480606491,56 L9,56" id="Stroke-5" stroke="#0E3570" stroke-width="2" stroke-linecap="round"></path>
                                    <path d="M14.1730876,14 C12.7518544,14.3910634 11.7224128,16.024593 11.7224128,18.0377555 C11.7224128,20.2525113 12.9747084,22.0076204 14.6116067,22.152061 C15.5292618,25.5071008 17.4307094,28.3830966 20,30.3103568 L19.5801719,33.8112227 C19.5133157,34.3706269 19.1962879,34.8735712 18.7121197,35.1873918 C18.5399471,35.2992726 18.3512401,35.3841358 18.1521093,35.4395566 L9,38" id="Stroke-7" stroke="#0E3570" stroke-width="2" stroke-linecap="round"></path>
                                    <path d="M38.9927126,13.9791981 C38.9927126,13.9791981 39.7240132,0 26.5349544,0 C13.3458955,0 14.0054524,14 14.0054524,14" id="Stroke-9" stroke="#0E3570" stroke-width="2" stroke-linecap="round"></path>
                                    <path d="M15,8.32053162 C15.5107205,6.95314677 16.5090724,5.90183178 17.603572,5.38180231 C19.3804108,4.53804887 21.3716007,5.21296158 23.0919225,6.23816253 C25.5759129,7.71945859 27.7459583,9.46234524 30.5307982,9.86351083 C33.1846841,10.245316 35.6159482,9.86035913 38,8.27280597" id="Stroke-11" stroke="#0E3570" stroke-width="2" stroke-linecap="round"></path>
                                    <path d="M18,35 L26,43" id="Stroke-13" stroke="#0E3570" stroke-width="2" stroke-linecap="round"></path>
                                    <path d="M35,35 L27,43" id="Stroke-15" stroke="#0E3570" stroke-width="2" stroke-linecap="round"></path>
                                    <path d="M34,43 L28.5791592,47.6355528 C28.2871536,47.8853784 27.8923709,48.0054984 27.4998145,47.9998069 C27.1076291,48.0054984 26.7124754,47.8853784 26.4204698,47.6355528 L21,43" id="Stroke-17" stroke="#0E3570" stroke-width="2" stroke-linecap="round"></path>
                                    <path d="M44.2500184,38 C45.3566682,38.2441075 46.4857727,38.8334481 47.5967794,39.7499395 C49.346573,41.193489 50.548404,43.2026044 50.9864389,45.4079434 L52.9889321,55.4267324 C53.0207709,55.5667008 52.9825643,55.7153753 52.8917399,55.8262115 C52.799575,55.9347037 52.6661871,56 52.5193935,56 L44,56" id="Stroke-19" stroke="#0E3570" stroke-width="2" stroke-linecap="round"></path>
                                    <path d="M17,55.5001936 C17,56.8805855 15.8806721,58 14.5,58 C13.119715,58 12,56.8805855 12,55.5001936 C12,54.1194145 13.119715,53 14.5,53 C15.8806721,53 17,54.1194145 17,55.5001936" id="Fill-21" fill="#0E3570"></path>
                                </g>
                            </g>
                        </g>
                    </g>
                </g>
            </g>
        </g>
    </g>
</svg>