<svg xmlns="http://www.w3.org/2000/svg" width="55" height="59" viewBox="0 0 55 59">
    <g fill="none" fill-rule="evenodd" opacity=".6">
        <path stroke="#FFF" stroke-linecap="round" stroke-width="2" d="M45 39l-9.153-2.566a2.002 2.002 0 0 1-.559-.253 1.917 1.917 0 0 1-.866-1.373L34 31.311c2.563-1.922 4.458-4.794 5.369-8.147 1.633-.14 2.889-1.896 2.889-4.11 0-2.046-1.065-3.7-2.523-4.054M21 57h23M9.75 39c-1.106.244-2.236.833-3.346 1.75a9.843 9.843 0 0 0-3.39 5.658L1.01 56.427a.47.47 0 0 0 .097.4.486.486 0 0 0 .373.173H10M15.173 15c-1.421.391-2.45 2.025-2.45 4.038 0 2.215 1.252 3.97 2.889 4.114.917 3.355 2.819 6.231 5.388 8.158l-.42 3.501a1.914 1.914 0 0 1-.868 1.376c-.172.112-.36.197-.56.253L10 39M39.993 14.98S40.724 1 27.535 1c-13.19 0-12.53 14-12.53 14"/>
        <path stroke="#FFF" stroke-linecap="round" stroke-width="2" d="M16 9.32c.51-1.367 1.51-2.418 2.604-2.938 1.776-.844 3.768-.169 5.488.856 2.484 1.481 4.654 3.224 7.439 3.626 2.654.381 5.085-.004 7.469-1.591M19 36l8 8M36 36l-8 8M35 44l-5.42 4.636c-.293.25-.688.37-1.08.364-.392.005-.788-.115-1.08-.364L22 44M45.25 39c1.107.244 2.236.833 3.347 1.75a9.845 9.845 0 0 1 3.39 5.658l2.002 10.019a.47.47 0 0 1-.097.4.486.486 0 0 1-.373.173H45"/>
        <path fill="#FFF" d="M18 56.5a2.5 2.5 0 1 1-5 0 2.5 2.5 0 0 1 5 0"/>
    </g>
</svg>
