<svg xmlns="http://www.w3.org/2000/svg" width="57" height="55" viewBox="0 0 57 55">
    <g fill="none" fill-rule="evenodd">
        <path fill="#0E3570" d="M5.25 40.5A2.5 2.5 0 0 1 2.714 43C1.387 42.98.269 41.864.25 40.536a2.5 2.5 0 1 1 5-.036"/>
        <path stroke="#0E3570" stroke-linecap="round" stroke-width="2" d="M2.25 35.888V27l.207.101.181.127 1.01.758 1.009.708 1.035.682 1.035.658 1.061.606 1.087.607 1.087.556 1.113.506 1.138.506 1.139.455 1.165.404 1.164.405 1.19.354 1.191.328 1.216.278 1.242.253 1.63.303 1.631.253V37.29l.052.278.052.253.078.278.103.228.181.278.181.278.181.227.207.254.233.202.233.202.233.202.233.177.259.152.259.151.284.127.259.1.285.102.285.101.284.05.285.051.31.05h.285l.285.026.31-.025.285-.025.31-.05.285-.052.285-.075.285-.102.284-.126.285-.126.284-.152.26-.152.258-.177.259-.202.259-.227.284-.279.26-.303.232-.303.207-.329.155-.354.104-.379.026-.202v-.405l-.026-.227V35.848l.621-.1.155-.026 1.372-.228 1.371-.253 1.346-.278 1.32-.328 1.32-.38 1.294-.404 1.268-.455 1.268-.48 1.242-.531 1.216-.582 1.216-.606 1.191-.658 1.164-.707 1.165-.734 1.139-.783 1.113-.81.362-.252.388-.253v21.54l-.052.126-.051.126-.13.455-.155.455-.155.405-.182.404-.207.38-.233.354-.258.353-.285.304-.31.303-.311.278-.337.253-.362.253-.388.227-.414.177-.44.202-.466.152-.854.253H7.84l-.13-.05-.129-.051-.466-.127-.466-.151-.413-.152-.415-.177-.388-.202-.362-.228-.363-.252-.31-.279-.31-.303-.285-.303-.259-.329-.259-.354-.233-.379-.18-.405-.208-.43-.155-.454-.259-.835v-2.885"/>
        <path stroke="#0E3570" stroke-linecap="round" stroke-width="2" d="M15.526 14.179H42 15.526zm26.474 0V7.705l-.026-.386-.052-.336-.077-.335-.13-.335-.13-.284-.155-.284-.18-.258-.234-.231-.232-.207-.26-.18-.258-.18-.31-.13-.311-.103-.336-.077-.363-.052-.362-.026H18.916l-.362.026-.363.052-.336.077-.31.103-.311.155-.285.155-.259.18-.233.232-.207.232-.18.258-.182.284-.13.31-.103.309-.077.335-.052.361-.026.387v6.164l.026.129v.129H42zM2.25 21.942v-2.167l.052-.051.025-.077.13-.568.181-.541.207-.542.285-.516.31-.49.363-.464.388-.413.44-.412.466-.336.517-.335.544-.258.569-.232.595-.155.595-.129.647-.051.311-.026.336.026.725.026h.75l1.502-.026V7.164l.025-.31.052-.335.052-.31.077-.309.104-.31.103-.309.104-.283.284-.568.337-.542.362-.515.414-.439.466-.438.518-.361.543-.335.57-.284.284-.103.31-.103.311-.104.31-.077.311-.052.337-.051.31-.026h20.755l.31.026.337.051.31.052.311.077.31.104.311.103.285.103.57.284.543.335.518.36.465.44.414.438.363.515.336.542.285.568.103.283.104.31.104.31.077.309.052.31.052.335.026.309V14.205h3.338l.543.026.518.051.517.103.518.155.466.18.466.207.465.258.415.283.413.31.363.361.362.387.31.387.285.438.26.465.206.49.207.515.285.954v2.167l-.31.258-.984.877-1.035.825-1.035.8-1.036.773-1.087.696-1.086.697-1.113.619-1.139.619-1.138.541-1.19.542-1.191.464-1.217.439-1.216.412-1.268.361-1.268.336-1.294.283-.699.13-.75.128-1.475.258v-1.264H23.78v1.213l-.388-.026-1.19-.18-1.191-.233-1.19-.258-1.19-.283-1.166-.336-1.138-.36-1.165-.388-1.138-.438-.803-.335-.802-.361-.802-.387-.776-.387-.777-.413-.776-.438-.75-.439-.725-.464-.75-.49-.7-.49-.724-.516-.699-.516-.673-.541-.698-.567-.673-.568-.647-.593z"/>
    </g>
</svg>
