<?xml version="1.0" encoding="UTF-8"?>
<svg width="57px" height="55px" viewBox="0 0 57 55" version="1.1" xmlns="http://www.w3.org/2000/svg" xmlns:xlink="http://www.w3.org/1999/xlink">
    <!-- Generator: sketchtool 51.2 (57519) - http://www.bohemiancoding.com/sketch -->
    <title>4F893CF7-415F-4914-9442-BF78F75598F8</title>
    <desc>Created with sketchtool.</desc>
    <defs></defs>
    <g id="Page-1" stroke="none" stroke-width="1" fill="none" fill-rule="evenodd" opacity="0.6">
        <g id="01_Personal-Details" transform="translate(-948.000000, -353.000000)">
            <g id="Banner" transform="translate(0.000000, 70.000000)">
                <g id="Flow" transform="translate(142.000000, 255.000000)">
                    <g id="Work" transform="translate(771.250000, 0.000000)">
                        <g id="Work-Exp" transform="translate(35.000000, 29.000000)">
                            <g>
                                <path d="M5,39.5000428 C5,40.8921968 3.86090319,42.019421 2.46400008,41.9997463 C1.13663683,41.9814285 0.0189108042,40.8637025 0.00025376897,39.536 C-0.0194209228,38.1390968 1.10746401,37 2.49995728,37 C3.88023867,37 5,38.1197614 5,39.5000428" id="Fill-1" fill="#FEFEFE"></path>
                                <polyline id="Stroke-3" stroke="#FEFEFE" stroke-width="2" stroke-linecap="round" points="2 34.8879054 2 26 2.20725285 26.1010741 2.38839764 26.2276528 3.39726452 26.9858657 4.40677605 27.6936991 5.44207332 28.3763426 6.47704826 29.0337963 7.53813126 29.6402407 8.625 30.2473148 9.71186874 30.8033796 10.8245232 31.3090648 11.9632857 31.81475 13.1020483 32.2697408 14.2665965 32.674037 15.4311448 33.0786481 16.6214788 33.4325648 17.8121351 33.7612917 19.0282548 34.0393241 20.2704826 34.2921667 21.9007857 34.5953889 23.5314112 34.8482315 23.5314112 35.5815695 23.5314112 35.9354861 23.5314112 36.2894028 23.5829826 36.5674352 23.6348764 36.8202778 23.712556 37.0983102 23.8160212 37.325963 23.997166 37.6039954 24.1783108 37.8820278 24.3594556 38.1093657 24.5663861 38.3625232 24.7994247 38.5646713 25.0324633 38.7668194 25.2651795 38.9689676 25.4978958 39.1459259 25.7570424 39.2976944 26.0155444 39.449463 26.3004768 39.5757268 26.5589788 39.6768009 26.8439112 39.7781898 27.1285212 39.8792639 27.4131313 39.9296435 27.6977413 39.980338 28.0081371 40.0307176 28.2930695 40.0307176 28.5776795 40.0562222 28.8880753 40.0307176 29.1730077 40.0055278 29.4834035 39.9551482 29.7680135 39.9044537 30.0526236 39.8285694 30.337556 39.7274954 30.622166 39.6012315 30.9067761 39.4746528 31.1913861 39.3228842 31.4502104 39.1714306 31.7090347 38.9944722 31.9678591 38.7920092 32.2266834 38.5646713 32.5112934 38.286324 32.7701177 37.9831018 33.0031563 37.6798796 33.2100868 37.3511528 33.3654459 36.9972361 33.4685888 36.6181297 33.4946969 36.4156667 33.4946969 36.2135185 33.4946969 36.0110555 33.4685888 35.7837176 33.4685888 35.5563797 33.4685888 35.3032222 33.4685888 34.8482315 34.0900251 34.7471574 34.2450618 34.7219676 35.6165406 34.4943148 36.9883417 34.2414722 38.3340347 33.9634398 39.6539421 33.6350278 40.9738494 33.2556065 42.2676486 32.8509953 43.5356622 32.3960046 44.8036757 31.9158241 46.0459035 31.3849491 47.2623455 30.8033796 48.4784653 30.1966204 49.6691216 29.5394815 50.8333475 28.8316482 51.9982181 28.0983102 53.1366583 27.3145926 54.2496351 26.5056852 54.6119247 26.2528426 55 26 55 47.5391666 54.9481062 47.6657454 54.8965347 47.7920092 54.7669614 48.247 54.6119247 48.7023056 54.4565656 49.1066018 54.2754208 49.511213 54.0684903 49.8903194 53.8354517 50.244551 53.5766274 50.5984676 53.2920174 50.9016898 52.9812993 51.204912 52.6709035 51.4832593 52.3343996 51.735787 51.9721101 51.9886296 51.5840347 52.2162824 51.1698514 52.3932407 50.7302046 52.5953889 50.2641274 52.7471574 49.4102973 53 7.58970273 53 7.46045174 52.9493055 7.33120074 52.8989259 6.86512358 52.7723472 6.39936874 52.6205787 5.98550769 52.469125 5.57132432 52.2921667 5.18292668 52.0897037 4.8206371 51.8623657 4.45834752 51.6095231 4.14795174 51.3314907 3.83755595 51.0279537 3.55262358 50.7247315 3.29412158 50.3960046 3.03497494 50.042088 2.80225868 49.6629815 2.6211139 49.2583704 2.41418337 48.8285694 2.25882432 48.3735787 2 47.5391666 2 44.654305"></polyline>
                                <path d="M15.2757857,13.1790233 L41.75,13.1790233 L15.2757857,13.1790233 Z M41.75,13.1790233 L41.75,9.92923829 L41.75,8.30450641 L41.75,6.70547214 L41.7238919,6.31872299 L41.6723205,5.98336908 L41.5946409,5.64801517 L41.4650676,5.31298248 L41.3358166,5.0290238 L41.1804576,4.74538635 L40.9993128,4.48744651 L40.7662742,4.25552551 L40.5335579,4.04930212 L40.2747336,3.86877636 L40.0159093,3.68825059 L39.7055135,3.55912006 L39.3947954,3.45600837 L39.0586139,3.3785943 L38.6963243,3.32719906 L38.3340347,3.30118023 L28.4996777,3.30118023 L18.6659653,3.30118023 L18.3036757,3.32719906 L17.9413861,3.3785943 L17.6048823,3.45600837 L17.2941642,3.55912006 L16.9837684,3.71394821 L16.6991583,3.86877636 L16.440334,4.04930212 L16.2072954,4.28122312 L16.0003649,4.51314412 L15.8192201,4.77140518 L15.6380753,5.05504264 L15.5088243,5.36437771 L15.4050367,5.67403401 L15.3276795,6.00938792 L15.2757857,6.37043945 L15.2496777,6.7571886 L15.2496777,9.8261266 L15.2496777,12.9210834 L15.2757857,13.0498928 L15.2757857,13.1790233 L41.75,13.1790233 Z M2,20.9419524 L2,18.775322 L2.05157147,18.7239268 L2.07735721,18.6465127 L2.20693052,18.0792378 L2.38807531,17.5376605 L2.59500584,16.9960832 L2.87993821,16.4802035 L3.190334,15.9900214 L3.55262358,15.5258582 L3.94069889,15.1130902 L4.380668,14.7006435 L4.84674516,14.3652896 L5.36407147,14.0299357 L5.90750584,13.772317 L6.47704826,13.5400748 L7.0720541,13.3852467 L7.66738226,13.2564374 L8.31428189,13.2047209 L8.625,13.1790233 L8.96118152,13.2047209 L9.68576068,13.2307397 L10.4364479,13.2307397 L11.9375,13.2047209 L11.9375,12.5857295 L11.9375,6.49924876 L11.9375,6.16389485 L11.9632857,5.85455977 L12.0148572,5.51920586 L12.066751,5.20954957 L12.1444305,4.90021449 L12.2478958,4.59087942 L12.351361,4.28122312 L12.4551486,3.99758567 L12.7394364,3.42998953 L13.0759402,2.88841224 L13.4382298,2.37285378 L13.8524132,1.93438818 L14.318168,1.49592258 L14.8358166,1.13487105 L15.379251,0.799517133 L15.9484711,0.515879677 L16.2334035,0.412767986 L16.5437993,0.309656294 L16.854195,0.206223383 L17.1649132,0.129130529 L17.4753089,0.0774140736 L17.8118128,0.0256976178 L18.1225309,0 L18.4587124,0 L38.5409653,0 L38.8774691,0 L39.1878649,0.0256976178 L39.5243687,0.0774140736 L39.8347645,0.129130529 L40.1454826,0.206223383 L40.4558784,0.309656294 L40.7662742,0.412767986 L41.0512066,0.515879677 L41.6204267,0.799517133 L42.163861,1.13487105 L42.6815097,1.49592258 L43.1472645,1.93438818 L43.5614479,2.37285378 L43.9237375,2.88841224 L44.2602413,3.42998953 L44.5448514,3.99758567 L44.6483166,4.28122312 L44.7517819,4.59087942 L44.8555695,4.90021449 L44.9329267,5.20954957 L44.9848205,5.51920586 L45.0367143,5.85455977 L45.0625,6.16389485 L45.0625,6.49924876 L45.0625,12.637446 L45.0625,13.2047209 L48.4007857,13.2047209 L48.9442201,13.2307397 L49.4618687,13.282135 L49.979195,13.3852467 L50.4968437,13.5400748 L50.9625985,13.7206006 L51.4286757,13.926824 L51.8944305,14.1847638 L52.3086139,14.4684013 L52.7224749,14.7780576 L53.0847645,15.1391091 L53.4470541,15.5258582 L53.7577722,15.9126074 L54.0423823,16.351073 L54.3012066,16.8155574 L54.5081371,17.3054183 L54.7150676,17.8212979 L55,18.775322 L55,20.9419524 L54.6892819,21.1998922 L53.7058784,22.0768234 L52.6709035,22.9020382 L51.6356062,23.7015553 L50.6003089,24.4753748 L49.5134402,25.1714591 L48.4265715,25.8678645 L47.313917,26.4868559 L46.1751545,27.1058472 L45.0367143,27.6474245 L43.8460579,28.1890018 L42.6557239,28.6531651 L41.4392819,29.0916307 L40.2228398,29.5043986 L38.9548263,29.8654502 L37.6868128,30.2008041 L36.3930135,30.4844415 L35.6942201,30.6132509 L34.9438552,30.7423814 L33.4685888,31 L33.4685888,29.7363196 L23.5310888,29.7363196 L23.5310888,30.355311 L23.5310888,30.9486048 L23.1430135,30.9229071 L21.9523572,30.7423814 L20.7620232,30.5101392 L19.5716892,30.2521993 L18.3813552,29.9685619 L17.2164846,29.633208 L16.0780444,29.2721564 L14.9134962,28.8854073 L13.7747336,28.4469417 L12.9724749,28.1115878 L12.1702163,27.7505362 L11.3679576,27.3637871 L10.5918069,26.9770379 L9.815334,26.5642699 L9.03886105,26.1258043 L8.28849616,25.6873387 L7.563917,25.2231755 L6.81322978,24.7329935 L6.11475868,24.2431326 L5.39017953,23.7272529 L4.6913861,23.2113733 L4.01837842,22.669796 L3.319585,22.1025211 L2.64689963,21.5352461 L2,20.9419524 Z" id="Stroke-5" stroke="#FEFEFE" stroke-width="2" stroke-linecap="round"></path>
                            </g>
                        </g>
                    </g>
                </g>
            </g>
        </g>
    </g>
</svg>